<svg xmlns="http://www.w3.org/2000/svg" viewBox="0 0 2560 1440" width="2560" height="1440">
<defs>
  <radialGradient id="bg" cx="50%" cy="42%" r="75%">
    <stop offset="0%" stop-color="#161b2c"/><stop offset="100%" stop-color="#0a0d16"/>
  </radialGradient>
  <linearGradient id="gold" x1="0" y1="0" x2="0" y2="1">
    <stop offset="0%" stop-color="#f6c65b"/><stop offset="100%" stop-color="#b97b16"/>
  </linearGradient>
  <linearGradient id="teal" x1="0" y1="1" x2="0" y2="0">
    <stop offset="0%" stop-color="#3ecfba"/><stop offset="100%" stop-color="#0d7a70"/>
  </linearGradient>
</defs>
<radialGradient id="wbg" cx="50%" cy="44%" r="85%">
  <stop offset="0%" stop-color="#161b2c"/><stop offset="100%" stop-color="#070910"/>
</radialGradient>
<radialGradient id="vign" cx="50%" cy="46%" r="72%">
  <stop offset="62%" stop-color="#000000" stop-opacity="0"/>
  <stop offset="100%" stop-color="#000000" stop-opacity="0.45"/>
</radialGradient>
<rect width="2560" height="1440" fill="url(#wbg)"/>
<circle cx="2253.42" cy="1274.46" r="1.17" fill="#cfd8ea" opacity="0.43"/>
<circle cx="131.79" cy="604.89" r="1.94" fill="#cfd8ea" opacity="0.22"/>
<circle cx="701.17" cy="803.61" r="2" fill="#cfd8ea" opacity="0.18"/>
<circle cx="2213.82" cy="223.49" r="2.3" fill="#cfd8ea" opacity="0.5"/>
<circle cx="766.15" cy="318.03" r="0.81" fill="#3ecfba" opacity="0.6"/>
<circle cx="702.72" cy="1293.85" r="2.23" fill="#cfd8ea" opacity="0.14"/>
<circle cx="1851.53" cy="943.83" r="1.03" fill="#cfd8ea" opacity="0.14"/>
<circle cx="2380.55" cy="526.99" r="1.38" fill="#cfd8ea" opacity="0.44"/>
<circle cx="531.12" cy="1354.45" r="1.31" fill="#cfd8ea" opacity="0.19"/>
<circle cx="261.07" cy="1413.65" r="0.84" fill="#cfd8ea" opacity="0.39"/>
<circle cx="1602.95" cy="62.25" r="1.18" fill="#cfd8ea" opacity="0.3"/>
<circle cx="191.06" cy="107.69" r="0.94" fill="#cfd8ea" opacity="0.32"/>
<circle cx="1341.47" cy="121.81" r="1.52" fill="#cfd8ea" opacity="0.23"/>
<circle cx="1709.64" cy="1010.86" r="1.93" fill="#cfd8ea" opacity="0.31"/>
<circle cx="2101.25" cy="906.8" r="0.93" fill="#cfd8ea" opacity="0.39"/>
<circle cx="1899.3" cy="386.6" r="1.28" fill="#cfd8ea" opacity="0.49"/>
<circle cx="2170.68" cy="507.7" r="1.33" fill="#f6c65b" opacity="0.19"/>
<circle cx="474.87" cy="290.2" r="1.29" fill="#cfd8ea" opacity="0.13"/>
<circle cx="1025.08" cy="1097.56" r="1.82" fill="#cfd8ea" opacity="0.56"/>
<circle cx="2236.41" cy="346.94" r="2.63" fill="#3ecfba" opacity="0.23"/>
<circle cx="1053.06" cy="131.28" r="1.12" fill="#cfd8ea" opacity="0.3"/>
<circle cx="1732.25" cy="1371.79" r="2.06" fill="#cfd8ea" opacity="0.21"/>
<circle cx="2495.26" cy="1221.93" r="1.53" fill="#cfd8ea" opacity="0.14"/>
<circle cx="2491.79" cy="1185.31" r="2.66" fill="#cfd8ea" opacity="0.25"/>
<circle cx="1770.23" cy="720.5" r="1.85" fill="#cfd8ea" opacity="0.47"/>
<circle cx="430.62" cy="327.13" r="1.36" fill="#cfd8ea" opacity="0.2"/>
<circle cx="1980.77" cy="262.02" r="1.91" fill="#cfd8ea" opacity="0.35"/>
<circle cx="929.26" cy="1309.26" r="1.76" fill="#cfd8ea" opacity="0.51"/>
<circle cx="1646.89" cy="899.31" r="2.29" fill="#cfd8ea" opacity="0.19"/>
<circle cx="1681.62" cy="1150.19" r="1.53" fill="#3ecfba" opacity="0.5"/>
<circle cx="1148.38" cy="1348.99" r="2.16" fill="#cfd8ea" opacity="0.24"/>
<circle cx="889.32" cy="883.66" r="1.43" fill="#3ecfba" opacity="0.36"/>
<circle cx="2012.33" cy="1346.52" r="1.71" fill="#cfd8ea" opacity="0.18"/>
<circle cx="1160.07" cy="1200.02" r="1.5" fill="#3ecfba" opacity="0.27"/>
<circle cx="1317.54" cy="1249.45" r="1.64" fill="#3ecfba" opacity="0.48"/>
<circle cx="1768.32" cy="1052" r="1.19" fill="#cfd8ea" opacity="0.17"/>
<circle cx="888.77" cy="114.28" r="1.91" fill="#cfd8ea" opacity="0.18"/>
<circle cx="2307.74" cy="1124.28" r="1.28" fill="#cfd8ea" opacity="0.3"/>
<circle cx="160.67" cy="1195.12" r="1.97" fill="#cfd8ea" opacity="0.14"/>
<circle cx="300.3" cy="1302.88" r="0.85" fill="#cfd8ea" opacity="0.37"/>
<circle cx="754.57" cy="590.87" r="0.9" fill="#f6c65b" opacity="0.24"/>
<circle cx="1814.84" cy="1269.42" r="1.67" fill="#cfd8ea" opacity="0.31"/>
<circle cx="21.23" cy="747.79" r="2.04" fill="#cfd8ea" opacity="0.46"/>
<circle cx="505.21" cy="814.31" r="1.66" fill="#f6c65b" opacity="0.6"/>
<circle cx="2018.86" cy="788.63" r="0.8" fill="#cfd8ea" opacity="0.31"/>
<circle cx="1784.12" cy="660.75" r="2.58" fill="#cfd8ea" opacity="0.21"/>
<circle cx="1001.01" cy="1395.63" r="1.63" fill="#cfd8ea" opacity="0.4"/>
<circle cx="873.32" cy="1294.98" r="1.61" fill="#cfd8ea" opacity="0.5"/>
<circle cx="2046.19" cy="209.02" r="2.61" fill="#cfd8ea" opacity="0.43"/>
<circle cx="133.46" cy="249.81" r="2.52" fill="#cfd8ea" opacity="0.52"/>
<circle cx="2513.61" cy="758.1" r="1.41" fill="#cfd8ea" opacity="0.46"/>
<circle cx="1572.57" cy="138.46" r="2.39" fill="#f6c65b" opacity="0.46"/>
<circle cx="116.11" cy="1282.28" r="1.28" fill="#cfd8ea" opacity="0.23"/>
<circle cx="641.9" cy="1287.38" r="1.03" fill="#cfd8ea" opacity="0.49"/>
<circle cx="2184.29" cy="1013.76" r="1.82" fill="#cfd8ea" opacity="0.59"/>
<circle cx="1867.89" cy="722.43" r="1.41" fill="#cfd8ea" opacity="0.52"/>
<circle cx="2245.93" cy="372.5" r="1.16" fill="#f6c65b" opacity="0.12"/>
<circle cx="1859.57" cy="1313.43" r="2.09" fill="#3ecfba" opacity="0.2"/>
<circle cx="613.22" cy="902.19" r="2.07" fill="#cfd8ea" opacity="0.52"/>
<circle cx="828.18" cy="497.07" r="1.01" fill="#cfd8ea" opacity="0.58"/>
<circle cx="1178.11" cy="1148.92" r="1.65" fill="#cfd8ea" opacity="0.28"/>
<circle cx="1718.15" cy="727.62" r="1.07" fill="#cfd8ea" opacity="0.6"/>
<circle cx="1060.4" cy="1170.75" r="1.71" fill="#f6c65b" opacity="0.18"/>
<circle cx="638.03" cy="614.1" r="1.22" fill="#cfd8ea" opacity="0.22"/>
<circle cx="575.95" cy="914.39" r="2.35" fill="#cfd8ea" opacity="0.3"/>
<circle cx="1423.21" cy="128.52" r="0.85" fill="#cfd8ea" opacity="0.29"/>
<circle cx="56.01" cy="855.67" r="1.7" fill="#cfd8ea" opacity="0.47"/>
<circle cx="1062.32" cy="1341.59" r="2.61" fill="#f6c65b" opacity="0.54"/>
<circle cx="1717.84" cy="319.02" r="2.69" fill="#3ecfba" opacity="0.21"/>
<circle cx="1964.11" cy="1386.69" r="1.01" fill="#f6c65b" opacity="0.2"/>
<circle cx="2525.53" cy="1046.07" r="1.78" fill="#cfd8ea" opacity="0.13"/>
<circle cx="88.48" cy="589.75" r="1.32" fill="#cfd8ea" opacity="0.55"/>
<circle cx="748.09" cy="337.91" r="2.64" fill="#cfd8ea" opacity="0.22"/>
<circle cx="1821.04" cy="39.94" r="1.5" fill="#cfd8ea" opacity="0.52"/>
<circle cx="659.73" cy="985.78" r="1.56" fill="#cfd8ea" opacity="0.29"/>
<circle cx="1963.6" cy="1072.75" r="2.02" fill="#3ecfba" opacity="0.52"/>
<circle cx="2185.45" cy="1367.58" r="2.6" fill="#f6c65b" opacity="0.39"/>
<circle cx="2109.67" cy="326.97" r="2.47" fill="#f6c65b" opacity="0.42"/>
<circle cx="470.24" cy="251.96" r="1.04" fill="#3ecfba" opacity="0.16"/>
<circle cx="665.34" cy="389.99" r="1.22" fill="#cfd8ea" opacity="0.45"/>
<circle cx="908.09" cy="1370.29" r="2.29" fill="#f6c65b" opacity="0.34"/>
<circle cx="472.83" cy="1268.83" r="2.36" fill="#cfd8ea" opacity="0.29"/>
<circle cx="1384.95" cy="1373.51" r="2.54" fill="#f6c65b" opacity="0.18"/>
<circle cx="2024.37" cy="3.1" r="0.88" fill="#cfd8ea" opacity="0.42"/>
<circle cx="41.02" cy="1028.71" r="0.84" fill="#cfd8ea" opacity="0.19"/>
<circle cx="856.92" cy="1261.88" r="1.31" fill="#cfd8ea" opacity="0.2"/>
<circle cx="1034.05" cy="1183.63" r="2.52" fill="#3ecfba" opacity="0.22"/>
<circle cx="361.38" cy="508.67" r="2.33" fill="#cfd8ea" opacity="0.3"/>
<circle cx="2510.89" cy="286.67" r="0.83" fill="#cfd8ea" opacity="0.56"/>
<circle cx="457.23" cy="1013.92" r="1.93" fill="#cfd8ea" opacity="0.58"/>
<circle cx="803.31" cy="1267.62" r="1.62" fill="#cfd8ea" opacity="0.59"/>
<circle cx="1866.98" cy="1395.73" r="1.93" fill="#cfd8ea" opacity="0.53"/>
<circle cx="1759.99" cy="20.14" r="1.11" fill="#cfd8ea" opacity="0.58"/>
<circle cx="1590.74" cy="1106.16" r="2.01" fill="#cfd8ea" opacity="0.44"/>
<circle cx="427.44" cy="874.42" r="2.69" fill="#cfd8ea" opacity="0.39"/>
<circle cx="137.13" cy="1390.51" r="1.76" fill="#cfd8ea" opacity="0.37"/>
<circle cx="684.06" cy="415.31" r="2.37" fill="#cfd8ea" opacity="0.18"/>
<circle cx="1003.25" cy="1195.57" r="1.31" fill="#cfd8ea" opacity="0.39"/>
<circle cx="297.33" cy="908.65" r="1.12" fill="#f6c65b" opacity="0.42"/>
<circle cx="2392.38" cy="258.38" r="2.67" fill="#cfd8ea" opacity="0.19"/>
<circle cx="1729.94" cy="860.66" r="2.46" fill="#cfd8ea" opacity="0.49"/>
<circle cx="616.5" cy="1089.94" r="1.39" fill="#cfd8ea" opacity="0.59"/>
<circle cx="233.21" cy="287.21" r="2.49" fill="#cfd8ea" opacity="0.2"/>
<circle cx="544.41" cy="526.37" r="2.22" fill="#cfd8ea" opacity="0.31"/>
<circle cx="2156.86" cy="92.84" r="1.09" fill="#f6c65b" opacity="0.34"/>
<circle cx="2302.55" cy="651.15" r="1.24" fill="#f6c65b" opacity="0.35"/>
<circle cx="165.83" cy="1166.38" r="1.51" fill="#cfd8ea" opacity="0.31"/>
<circle cx="2341.78" cy="329.09" r="2.06" fill="#cfd8ea" opacity="0.55"/>
<circle cx="114.48" cy="803.47" r="2.57" fill="#cfd8ea" opacity="0.28"/>
<circle cx="187.54" cy="930.94" r="1.02" fill="#f6c65b" opacity="0.21"/>
<circle cx="1925.41" cy="1167.65" r="1.67" fill="#cfd8ea" opacity="0.12"/>
<circle cx="488.5" cy="184" r="2.03" fill="#cfd8ea" opacity="0.39"/>
<circle cx="1787.57" cy="322.28" r="2.13" fill="#cfd8ea" opacity="0.37"/>
<circle cx="1880.74" cy="769.3" r="1.73" fill="#f6c65b" opacity="0.4"/>
<circle cx="609.45" cy="750.82" r="1.69" fill="#3ecfba" opacity="0.16"/>
<circle cx="1988.83" cy="124.2" r="2.05" fill="#f6c65b" opacity="0.62"/>
<circle cx="1981.02" cy="538.06" r="2.02" fill="#cfd8ea" opacity="0.42"/>
<circle cx="1324.93" cy="1389.81" r="2.14" fill="#3ecfba" opacity="0.36"/>
<circle cx="59.08" cy="836.43" r="2.13" fill="#cfd8ea" opacity="0.49"/>
<circle cx="81.8" cy="1318.35" r="1.89" fill="#f6c65b" opacity="0.19"/>
<circle cx="1652.21" cy="1347.23" r="1.88" fill="#3ecfba" opacity="0.26"/>
<circle cx="648.52" cy="1337.77" r="1.49" fill="#cfd8ea" opacity="0.32"/>
<circle cx="1399.5" cy="1327.55" r="0.82" fill="#3ecfba" opacity="0.39"/>
<circle cx="270.9" cy="151.17" r="1.52" fill="#f6c65b" opacity="0.14"/>
<circle cx="2307.65" cy="899.1" r="2.33" fill="#cfd8ea" opacity="0.18"/>
<circle cx="2103.04" cy="29.85" r="2.13" fill="#cfd8ea" opacity="0.25"/>
<circle cx="2504.86" cy="170.75" r="2.09" fill="#cfd8ea" opacity="0.48"/>
<circle cx="559.89" cy="1297.88" r="1.6" fill="#cfd8ea" opacity="0.48"/>
<circle cx="69.69" cy="345.66" r="0.92" fill="#cfd8ea" opacity="0.48"/>
<circle cx="1920.04" cy="250.13" r="1.2" fill="#cfd8ea" opacity="0.19"/>
<circle cx="1922.18" cy="496.11" r="1.06" fill="#cfd8ea" opacity="0.3"/>
<circle cx="1942.79" cy="1266.77" r="2.29" fill="#cfd8ea" opacity="0.62"/>
<circle cx="2274.2" cy="720.19" r="1.47" fill="#3ecfba" opacity="0.27"/>
<circle cx="2537.5" cy="880.76" r="2.42" fill="#cfd8ea" opacity="0.13"/>
<circle cx="2190.82" cy="467.8" r="1.57" fill="#cfd8ea" opacity="0.25"/>
<circle cx="963.53" cy="199.95" r="2.39" fill="#cfd8ea" opacity="0.17"/>
<circle cx="1280.0" cy="640" r="520" fill="none" stroke="#e8b84b" stroke-width="1.5" opacity="0.1"/>
<circle cx="1280.0" cy="640" r="680" fill="none" stroke="#2bb5a3" stroke-width="1.5" opacity="0.07"/>
<circle cx="1280.0" cy="640" r="880" fill="none" stroke="#e8b84b" stroke-width="1.5" opacity="0.05"/>
<circle cx="1280.0" cy="640" r="1120" fill="none" stroke="#2bb5a3" stroke-width="1.5" opacity="0.035"/>
<g transform="translate(1280.0,640) scale(0.92)">
<circle cx="0" cy="0" r="388" fill="none" stroke="#e8b84b" stroke-width="3" opacity="0.7"/>
<g transform="translate(0,-388) rotate(-90)"><path d="M 0 -8 L 5.5 0 L 0 8 L -5.5 0 Z" fill="#f6c65b"/></g>
<g transform="translate(194,-336.02) rotate(-60)"><path d="M 0 -8 L 5.5 0 L 0 8 L -5.5 0 Z" fill="#3ecfba"/></g>
<g transform="translate(336.02,-194) rotate(-30)"><path d="M 0 -8 L 5.5 0 L 0 8 L -5.5 0 Z" fill="#f6c65b"/></g>
<g transform="translate(388,0) rotate(0)"><path d="M 0 -8 L 5.5 0 L 0 8 L -5.5 0 Z" fill="#3ecfba"/></g>
<g transform="translate(336.02,194) rotate(30)"><path d="M 0 -8 L 5.5 0 L 0 8 L -5.5 0 Z" fill="#f6c65b"/></g>
<g transform="translate(194,336.02) rotate(60)"><path d="M 0 -8 L 5.5 0 L 0 8 L -5.5 0 Z" fill="#3ecfba"/></g>
<g transform="translate(0,388) rotate(90)"><path d="M 0 -8 L 5.5 0 L 0 8 L -5.5 0 Z" fill="#f6c65b"/></g>
<g transform="translate(-194,336.02) rotate(120)"><path d="M 0 -8 L 5.5 0 L 0 8 L -5.5 0 Z" fill="#3ecfba"/></g>
<g transform="translate(-336.02,194) rotate(150)"><path d="M 0 -8 L 5.5 0 L 0 8 L -5.5 0 Z" fill="#f6c65b"/></g>
<g transform="translate(-388,0) rotate(180)"><path d="M 0 -8 L 5.5 0 L 0 8 L -5.5 0 Z" fill="#3ecfba"/></g>
<g transform="translate(-336.02,-194) rotate(210)"><path d="M 0 -8 L 5.5 0 L 0 8 L -5.5 0 Z" fill="#f6c65b"/></g>
<g transform="translate(-194,-336.02) rotate(240)"><path d="M 0 -8 L 5.5 0 L 0 8 L -5.5 0 Z" fill="#3ecfba"/></g>
<path d="M 0 -340 A 340 340 0 0 1 0 340 A 170 170 0 0 0 0 0 A 170 170 0 0 1 0 -340 Z" fill="url(#gold)"/>
<path d="M 0 340 A 340 340 0 0 1 0 -340 A 170 170 0 0 0 0 0 A 170 170 0 0 1 0 340 Z" fill="url(#teal)"/>
<g transform="translate(0,-170.0) scale(0.96)">
<path d="M -21.48 -89.46 Q -10.3 -124.58 0 -152 Q 10.3 -124.58 21.48 -89.46 Z M 26.13 -88.21 Q 53.37 -113.03 76 -131.64 Q 71.2 -102.74 63.33 -66.73 Z M 66.73 -63.33 Q 102.74 -71.2 131.64 -76 Q 113.03 -53.37 88.21 -26.13 Z M 89.46 -21.48 Q 124.58 -10.3 152 0 Q 124.58 10.3 89.46 21.48 Z M 88.21 26.13 Q 113.03 53.37 131.64 76 Q 102.74 71.2 66.73 63.33 Z M 63.33 66.73 Q 71.2 102.74 76 131.64 Q 53.37 113.03 26.13 88.21 Z M 21.48 89.46 Q 10.3 124.58 0 152 Q -10.3 124.58 -21.48 89.46 Z M -26.13 88.21 Q -53.37 113.03 -76 131.64 Q -71.2 102.74 -63.33 66.73 Z M -66.73 63.33 Q -102.74 71.2 -131.64 76 Q -113.03 53.37 -88.21 26.13 Z M -89.46 21.48 Q -124.58 10.3 -152 0 Q -124.58 -10.3 -89.46 -21.48 Z M -88.21 -26.13 Q -113.03 -53.37 -131.64 -76 Q -102.74 -71.2 -66.73 -63.33 Z M -63.33 -66.73 Q -71.2 -102.74 -76 -131.64 Q -53.37 -113.03 -26.13 -88.21 Z" fill="#0c101c"/>
<circle r="98" fill="#0c101c"/>
<path d="M -56 -44 L -16 -31 M 56 -44 L 16 -31" fill="none" stroke="#e8b84b" stroke-width="11" stroke-linecap="round" stroke-linejoin="round"/>
<path d="M -14 -8 Q -33 -26 -52 -20 Q -33 -2 -14 -8 Z M 14 -8 Q 33 -26 52 -20 Q 33 -2 14 -8 Z" fill="#3ecfba"/>
<path d="M -17 18 L 17 18 L 0 44 Z" fill="#e8b84b"/>
<path d="M -14 -28 L -13 16 M 14 -28 L 13 16" fill="none" stroke="#e8b84b" stroke-width="6" stroke-linecap="round" stroke-linejoin="round"/>
<path d="M 0 44 L 0 56 M 0 56 C -8 66 -24 66 -32 56 M 0 56 C 8 66 24 66 32 56" fill="none" stroke="#e8b84b" stroke-width="8" stroke-linecap="round" stroke-linejoin="round"/>
<path d="M 0 70 L 9 81 L 0 94 L -9 81 Z" fill="#e8b84b"/>
</g>
<g transform="translate(0,170.0)">
<path d="M 0 -13 L 1.22 -13.55 L 2.54 -13.99 L 3.94 -14.29 L 5.42 -14.44 L 6.96 -14.45 L 8.54 -14.29 L 10.14 -13.96 L 11.75 -13.45 L 13.35 -12.76 L 14.91 -11.89 L 16.42 -10.84 L 17.86 -9.61 L 19.21 -8.21 L 20.45 -6.64 L 21.55 -4.92 L 22.51 -3.05 L 23.3 -1.05 L 23.9 1.07 L 24.31 3.29 L 24.51 5.59 L 24.49 7.96 L 24.24 10.36 L 23.74 12.78 L 23.01 15.19 L 22.03 17.57 L 20.81 19.89 L 19.34 22.13 L 17.63 24.27 L 15.7 26.27 L 13.54 28.12 L 11.18 29.79 L 8.63 31.26 L 5.9 32.5 L 3.02 33.51 L 0 34.25 L -3.12 34.72 L -6.33 34.89 L -9.6 34.77 L -12.89 34.34 L -16.18 33.59 L -19.44 32.53 L -22.63 31.15 L -25.73 29.45 L -28.71 27.45 L -31.52 25.14 L -34.16 22.55 L -36.58 19.68 L -38.75 16.56 L -40.66 13.21 L -42.27 9.65 L -43.57 5.9 L -44.53 2 L -45.13 -2.03 L -45.37 -6.15 L -45.23 -10.32 L -44.7 -14.52 L -43.78 -18.71 L -42.46 -22.85 L -40.75 -26.9 L -38.64 -30.82 L -36.17 -34.58 L -33.32 -38.14 L -30.12 -41.46 L -26.6 -44.52 L -22.76 -47.27 L -18.65 -49.69 L -14.28 -51.74 L -9.69 -53.41 L -4.92 -54.67 L -0 -55.5 L 5.03 -55.88 L 10.13 -55.8 L 15.25 -55.26 L 20.35 -54.23 L 25.4 -52.74 L 30.33 -50.77 L 35.12 -48.34 L 39.71 -45.45 L 44.06 -42.13 L 48.14 -38.39 L 51.89 -34.25 L 55.29 -29.75 L 58.29 -24.91 L 60.87 -19.78 L 62.99 -14.38 L 64.62 -8.75 L 65.76 -2.95 L 66.36 2.98 L 66.43 9 L 65.95 15.05 L 64.91 21.09 L 63.32 27.06 L 61.17 32.92 L 58.48 38.6 L 55.26 44.07 L 51.52 49.26 L 47.3 54.14 L 42.61 58.65 L 37.5 62.76 L 31.98 66.41 L 26.11 69.58 L 19.93 72.23 L 13.49 74.32 L 6.83 75.84 L 0 76.75 L -6.93 77.05 L -13.92 76.71 L -20.9 75.74 L -27.82 74.13 L -34.62 71.88 L -41.23 69.01 L -47.61 65.53 L -53.69 61.46 L -59.42 56.82 L -64.75 51.64 L -69.63 45.96 L -74 39.82 L -77.83 33.27 L -81.08 26.34 L -83.7 19.11 L -85.68 11.61 L -86.98 3.91 L -87.59 -3.93 L -87.49 -11.85 L -86.66 -19.78 L -85.12 -27.66 L -82.86 -35.41 L -79.88 -42.99 L -76.21 -50.31 L -71.87 -57.32 L -66.88 -63.95 L -61.28 -70.14 L -55.1 -75.85 L -48.4 -81 L -41.2 -85.56 L -33.58 -89.48 L -25.59 -92.71 L -17.28 -95.23 L -8.73 -97 L -0 -98 C 46 -96 74 -114 74 -158" fill="none" stroke="#0c101c" stroke-width="26" stroke-linecap="round" stroke-linejoin="round"/>
<g transform="translate(74,-158) rotate(-90)">
<path d="M -10 -17 C 26 -19 46 -8 52 0 C 46 8 26 19 -10 17 Z" fill="#0c101c"/>
<circle cx="24" cy="-5" r="6.5" fill="#f6c65b"/>
<path d="M 52 0 L 66 0 M 66 0 L 75 -6 M 66 0 L 75 6" fill="none" stroke="#2bb5a3" stroke-width="4.5" stroke-linecap="round" stroke-linejoin="round"/>
</g></g>
</g>
<g transform="translate(1084.7,1128) scale(0.62)">
<g transform="translate(0,0)"><path d="M 2 0 L 68 0 L 2 100 L 68 100" fill="none" stroke="#e8b84b" stroke-width="14" stroke-linecap="round" stroke-linejoin="round"/></g>
<g transform="translate(112,0)"><path d="M 2 0 L 2 60 C 2 88 14 100 35 100 C 56 100 68 88 68 60 L 68 0" fill="none" stroke="#e8b84b" stroke-width="14" stroke-linecap="round" stroke-linejoin="round"/></g>
<g transform="translate(224,0)"><path d="M 2 100 L 2 0 L 42 0 C 62 0 68 11 68 26 C 68 41 62 52 42 52 L 2 52 M 44 52 L 68 100" fill="none" stroke="#e8b84b" stroke-width="14" stroke-linecap="round" stroke-linejoin="round"/></g>
<g transform="translate(336,0)"><path d="M 2 0 L 35 100 L 68 0" fill="none" stroke="#e8b84b" stroke-width="14" stroke-linecap="round" stroke-linejoin="round"/></g>
<g transform="translate(448,0)"><path d="M 2 100 L 35 0 L 68 100 M 22 62 L 48 62" fill="none" stroke="#e8b84b" stroke-width="14" stroke-linecap="round" stroke-linejoin="round"/></g>
<g transform="translate(560,0)"><path d="M 2 100 L 2 0 L 68 100 L 68 0" fill="none" stroke="#e8b84b" stroke-width="14" stroke-linecap="round" stroke-linejoin="round"/></g>
</g>
<g transform="translate(1259.98,1218) scale(0.22)">
<g transform="translate(0,0)"><path d="M 35 0 C 14 0 4 18 4 50 C 4 82 14 100 35 100 C 56 100 66 82 66 50 C 66 18 56 0 35 0 Z" fill="none" stroke="#2bb5a3" stroke-width="16" stroke-linecap="round" stroke-linejoin="round"/></g>
<g transform="translate(112,0)"><path d="M 62 16 C 52 2 22 -2 12 14 C 2 30 22 40 35 45 C 50 51 68 60 60 80 C 52 100 18 102 6 88" fill="none" stroke="#2bb5a3" stroke-width="16" stroke-linecap="round" stroke-linejoin="round"/></g>
</g>
<rect width="2560" height="1440" fill="url(#vign)"/>
</svg>