<svg xmlns="http://www.w3.org/2000/svg" viewBox="0 0 1024 1180" width="1024" height="1180">
<defs>
  <radialGradient id="bg" cx="50%" cy="42%" r="75%">
    <stop offset="0%" stop-color="#161b2c"/><stop offset="100%" stop-color="#0a0d16"/>
  </radialGradient>
  <linearGradient id="gold" x1="0" y1="0" x2="0" y2="1">
    <stop offset="0%" stop-color="#f6c65b"/><stop offset="100%" stop-color="#b97b16"/>
  </linearGradient>
  <linearGradient id="teal" x1="0" y1="1" x2="0" y2="0">
    <stop offset="0%" stop-color="#3ecfba"/><stop offset="100%" stop-color="#0d7a70"/>
  </linearGradient>
</defs>
<rect width="1024" height="1180" fill="url(#bg)"/>
<g transform="translate(512,415) scale(0.82)">
<circle cx="0" cy="0" r="388" fill="none" stroke="#e8b84b" stroke-width="3" opacity="0.7"/>
<g transform="translate(0,-388) rotate(-90)"><path d="M 0 -8 L 5.5 0 L 0 8 L -5.5 0 Z" fill="#f6c65b"/></g>
<g transform="translate(194,-336.02) rotate(-60)"><path d="M 0 -8 L 5.5 0 L 0 8 L -5.5 0 Z" fill="#3ecfba"/></g>
<g transform="translate(336.02,-194) rotate(-30)"><path d="M 0 -8 L 5.5 0 L 0 8 L -5.5 0 Z" fill="#f6c65b"/></g>
<g transform="translate(388,0) rotate(0)"><path d="M 0 -8 L 5.5 0 L 0 8 L -5.5 0 Z" fill="#3ecfba"/></g>
<g transform="translate(336.02,194) rotate(30)"><path d="M 0 -8 L 5.5 0 L 0 8 L -5.5 0 Z" fill="#f6c65b"/></g>
<g transform="translate(194,336.02) rotate(60)"><path d="M 0 -8 L 5.5 0 L 0 8 L -5.5 0 Z" fill="#3ecfba"/></g>
<g transform="translate(0,388) rotate(90)"><path d="M 0 -8 L 5.5 0 L 0 8 L -5.5 0 Z" fill="#f6c65b"/></g>
<g transform="translate(-194,336.02) rotate(120)"><path d="M 0 -8 L 5.5 0 L 0 8 L -5.5 0 Z" fill="#3ecfba"/></g>
<g transform="translate(-336.02,194) rotate(150)"><path d="M 0 -8 L 5.5 0 L 0 8 L -5.5 0 Z" fill="#f6c65b"/></g>
<g transform="translate(-388,0) rotate(180)"><path d="M 0 -8 L 5.5 0 L 0 8 L -5.5 0 Z" fill="#3ecfba"/></g>
<g transform="translate(-336.02,-194) rotate(210)"><path d="M 0 -8 L 5.5 0 L 0 8 L -5.5 0 Z" fill="#f6c65b"/></g>
<g transform="translate(-194,-336.02) rotate(240)"><path d="M 0 -8 L 5.5 0 L 0 8 L -5.5 0 Z" fill="#3ecfba"/></g>
<path d="M 0 -340 A 340 340 0 0 1 0 340 A 170 170 0 0 0 0 0 A 170 170 0 0 1 0 -340 Z" fill="url(#gold)"/>
<path d="M 0 340 A 340 340 0 0 1 0 -340 A 170 170 0 0 0 0 0 A 170 170 0 0 1 0 340 Z" fill="url(#teal)"/>
<g transform="translate(0,-170.0) scale(0.96)">
<path d="M -21.48 -89.46 Q -10.3 -124.58 0 -152 Q 10.3 -124.58 21.48 -89.46 Z M 26.13 -88.21 Q 53.37 -113.03 76 -131.64 Q 71.2 -102.74 63.33 -66.73 Z M 66.73 -63.33 Q 102.74 -71.2 131.64 -76 Q 113.03 -53.37 88.21 -26.13 Z M 89.46 -21.48 Q 124.58 -10.3 152 0 Q 124.58 10.3 89.46 21.48 Z M 88.21 26.13 Q 113.03 53.37 131.64 76 Q 102.74 71.2 66.73 63.33 Z M 63.33 66.73 Q 71.2 102.74 76 131.64 Q 53.37 113.03 26.13 88.21 Z M 21.48 89.46 Q 10.3 124.58 0 152 Q -10.3 124.58 -21.48 89.46 Z M -26.13 88.21 Q -53.37 113.03 -76 131.64 Q -71.2 102.74 -63.33 66.73 Z M -66.73 63.33 Q -102.74 71.2 -131.64 76 Q -113.03 53.37 -88.21 26.13 Z M -89.46 21.48 Q -124.58 10.3 -152 0 Q -124.58 -10.3 -89.46 -21.48 Z M -88.21 -26.13 Q -113.03 -53.37 -131.64 -76 Q -102.74 -71.2 -66.73 -63.33 Z M -63.33 -66.73 Q -71.2 -102.74 -76 -131.64 Q -53.37 -113.03 -26.13 -88.21 Z" fill="#0c101c"/>
<circle r="98" fill="#0c101c"/>
<path d="M -56 -44 L -16 -31 M 56 -44 L 16 -31" fill="none" stroke="#e8b84b" stroke-width="11" stroke-linecap="round" stroke-linejoin="round"/>
<path d="M -14 -8 Q -33 -26 -52 -20 Q -33 -2 -14 -8 Z M 14 -8 Q 33 -26 52 -20 Q 33 -2 14 -8 Z" fill="#3ecfba"/>
<path d="M -17 18 L 17 18 L 0 44 Z" fill="#e8b84b"/>
<path d="M -14 -28 L -13 16 M 14 -28 L 13 16" fill="none" stroke="#e8b84b" stroke-width="6" stroke-linecap="round" stroke-linejoin="round"/>
<path d="M 0 44 L 0 56 M 0 56 C -8 66 -24 66 -32 56 M 0 56 C 8 66 24 66 32 56" fill="none" stroke="#e8b84b" stroke-width="8" stroke-linecap="round" stroke-linejoin="round"/>
<path d="M 0 70 L 9 81 L 0 94 L -9 81 Z" fill="#e8b84b"/>
</g>
<g transform="translate(0,170.0)">
<path d="M 0 -13 L 1.22 -13.55 L 2.54 -13.99 L 3.94 -14.29 L 5.42 -14.44 L 6.96 -14.45 L 8.54 -14.29 L 10.14 -13.96 L 11.75 -13.45 L 13.35 -12.76 L 14.91 -11.89 L 16.42 -10.84 L 17.86 -9.61 L 19.21 -8.21 L 20.45 -6.64 L 21.55 -4.92 L 22.51 -3.05 L 23.3 -1.05 L 23.9 1.07 L 24.31 3.29 L 24.51 5.59 L 24.49 7.96 L 24.24 10.36 L 23.74 12.78 L 23.01 15.19 L 22.03 17.57 L 20.81 19.89 L 19.34 22.13 L 17.63 24.27 L 15.7 26.27 L 13.54 28.12 L 11.18 29.79 L 8.63 31.26 L 5.9 32.5 L 3.02 33.51 L 0 34.25 L -3.12 34.72 L -6.33 34.89 L -9.6 34.77 L -12.89 34.34 L -16.18 33.59 L -19.44 32.53 L -22.63 31.15 L -25.73 29.45 L -28.71 27.45 L -31.52 25.14 L -34.16 22.55 L -36.58 19.68 L -38.75 16.56 L -40.66 13.21 L -42.27 9.65 L -43.57 5.9 L -44.53 2 L -45.13 -2.03 L -45.37 -6.15 L -45.23 -10.32 L -44.7 -14.52 L -43.78 -18.71 L -42.46 -22.85 L -40.75 -26.9 L -38.64 -30.82 L -36.17 -34.58 L -33.32 -38.14 L -30.12 -41.46 L -26.6 -44.52 L -22.76 -47.27 L -18.65 -49.69 L -14.28 -51.74 L -9.69 -53.41 L -4.92 -54.67 L -0 -55.5 L 5.03 -55.88 L 10.13 -55.8 L 15.25 -55.26 L 20.35 -54.23 L 25.4 -52.74 L 30.33 -50.77 L 35.12 -48.34 L 39.71 -45.45 L 44.06 -42.13 L 48.14 -38.39 L 51.89 -34.25 L 55.29 -29.75 L 58.29 -24.91 L 60.87 -19.78 L 62.99 -14.38 L 64.62 -8.75 L 65.76 -2.95 L 66.36 2.98 L 66.43 9 L 65.95 15.05 L 64.91 21.09 L 63.32 27.06 L 61.17 32.92 L 58.48 38.6 L 55.26 44.07 L 51.52 49.26 L 47.3 54.14 L 42.61 58.65 L 37.5 62.76 L 31.98 66.41 L 26.11 69.58 L 19.93 72.23 L 13.49 74.32 L 6.83 75.84 L 0 76.75 L -6.93 77.05 L -13.92 76.71 L -20.9 75.74 L -27.82 74.13 L -34.62 71.88 L -41.23 69.01 L -47.61 65.53 L -53.69 61.46 L -59.42 56.82 L -64.75 51.64 L -69.63 45.96 L -74 39.82 L -77.83 33.27 L -81.08 26.34 L -83.7 19.11 L -85.68 11.61 L -86.98 3.91 L -87.59 -3.93 L -87.49 -11.85 L -86.66 -19.78 L -85.12 -27.66 L -82.86 -35.41 L -79.88 -42.99 L -76.21 -50.31 L -71.87 -57.32 L -66.88 -63.95 L -61.28 -70.14 L -55.1 -75.85 L -48.4 -81 L -41.2 -85.56 L -33.58 -89.48 L -25.59 -92.71 L -17.28 -95.23 L -8.73 -97 L -0 -98 C 46 -96 74 -114 74 -158" fill="none" stroke="#0c101c" stroke-width="26" stroke-linecap="round" stroke-linejoin="round"/>
<g transform="translate(74,-158) rotate(-90)">
<path d="M -10 -17 C 26 -19 46 -8 52 0 C 46 8 26 19 -10 17 Z" fill="#0c101c"/>
<circle cx="24" cy="-5" r="6.5" fill="#f6c65b"/>
<path d="M 52 0 L 66 0 M 66 0 L 75 -6 M 66 0 L 75 6" fill="none" stroke="#2bb5a3" stroke-width="4.5" stroke-linecap="round" stroke-linejoin="round"/>
</g></g>
</g>
<g transform="translate(197,862) scale(1.0)">
<g transform="translate(0,0)"><path d="M 2 0 L 68 0 L 2 100 L 68 100" fill="none" stroke="#e8b84b" stroke-width="13" stroke-linecap="round" stroke-linejoin="round"/></g>
<g transform="translate(112,0)"><path d="M 2 0 L 2 60 C 2 88 14 100 35 100 C 56 100 68 88 68 60 L 68 0" fill="none" stroke="#e8b84b" stroke-width="13" stroke-linecap="round" stroke-linejoin="round"/></g>
<g transform="translate(224,0)"><path d="M 2 100 L 2 0 L 42 0 C 62 0 68 11 68 26 C 68 41 62 52 42 52 L 2 52 M 44 52 L 68 100" fill="none" stroke="#e8b84b" stroke-width="13" stroke-linecap="round" stroke-linejoin="round"/></g>
<g transform="translate(336,0)"><path d="M 2 0 L 35 100 L 68 0" fill="none" stroke="#e8b84b" stroke-width="13" stroke-linecap="round" stroke-linejoin="round"/></g>
<g transform="translate(448,0)"><path d="M 2 100 L 35 0 L 68 100 M 22 62 L 48 62" fill="none" stroke="#e8b84b" stroke-width="13" stroke-linecap="round" stroke-linejoin="round"/></g>
<g transform="translate(560,0)"><path d="M 2 100 L 2 0 L 68 100 L 68 0" fill="none" stroke="#e8b84b" stroke-width="13" stroke-linecap="round" stroke-linejoin="round"/></g>
</g>
<g transform="translate(481.06,1000) scale(0.34)">
<g transform="translate(0,0)"><path d="M 35 0 C 14 0 4 18 4 50 C 4 82 14 100 35 100 C 56 100 66 82 66 50 C 66 18 56 0 35 0 Z" fill="none" stroke="#2bb5a3" stroke-width="15" stroke-linecap="round" stroke-linejoin="round"/></g>
<g transform="translate(112,0)"><path d="M 62 16 C 52 2 22 -2 12 14 C 2 30 22 40 35 45 C 50 51 68 60 60 80 C 52 100 18 102 6 88" fill="none" stroke="#2bb5a3" stroke-width="15" stroke-linecap="round" stroke-linejoin="round"/></g>
</g>
<path d="M 305.06 1017 L 435.06 1017" stroke="#e8b84b" stroke-width="3" opacity="0.6"/>
<path d="M 588.94 1017 L 718.94 1017" stroke="#e8b84b" stroke-width="3" opacity="0.6"/>
</svg>