<svg xmlns="http://www.w3.org/2000/svg" viewBox="0 0 1024 1180" width="1024" height="1180">
<defs>
  <radialGradient id="bg" cx="50%" cy="42%" r="75%">
    <stop offset="0%" stop-color="#161b2c"/><stop offset="100%" stop-color="#0a0d16"/>
  </radialGradient>
  <linearGradient id="gold" x1="0" y1="0" x2="0" y2="1">
    <stop offset="0%" stop-color="#f6c65b"/><stop offset="100%" stop-color="#b97b16"/>
  </linearGradient>
  <linearGradient id="teal" x1="0" y1="1" x2="0" y2="0">
    <stop offset="0%" stop-color="#3ecfba"/><stop offset="100%" stop-color="#0d7a70"/>
  </linearGradient>
</defs>
<rect width="1024" height="1180" fill="url(#bg)"/>
<g transform="translate(512,415) scale(0.82)">
<circle cx="0" cy="0" r="388" fill="none" stroke="#e8b84b" stroke-width="3" opacity="0.7"/>
<g transform="translate(0,-388) rotate(-90)"><path d="M 0 -8 L 5.5 0 L 0 8 L -5.5 0 Z" fill="#f6c65b"/></g>
<g transform="translate(194,-336.02) rotate(-60)"><path d="M 0 -8 L 5.5 0 L 0 8 L -5.5 0 Z" fill="#3ecfba"/></g>
<g transform="translate(336.02,-194) rotate(-30)"><path d="M 0 -8 L 5.5 0 L 0 8 L -5.5 0 Z" fill="#f6c65b"/></g>
<g transform="translate(388,0) rotate(0)"><path d="M 0 -8 L 5.5 0 L 0 8 L -5.5 0 Z" fill="#3ecfba"/></g>
<g transform="translate(336.02,194) rotate(30)"><path d="M 0 -8 L 5.5 0 L 0 8 L -5.5 0 Z" fill="#f6c65b"/></g>
<g transform="translate(194,336.02) rotate(60)"><path d="M 0 -8 L 5.5 0 L 0 8 L -5.5 0 Z" fill="#3ecfba"/></g>
<g transform="translate(0,388) rotate(90)"><path d="M 0 -8 L 5.5 0 L 0 8 L -5.5 0 Z" fill="#f6c65b"/></g>
<g transform="translate(-194,336.02) rotate(120)"><path d="M 0 -8 L 5.5 0 L 0 8 L -5.5 0 Z" fill="#3ecfba"/></g>
<g transform="translate(-336.02,194) rotate(150)"><path d="M 0 -8 L 5.5 0 L 0 8 L -5.5 0 Z" fill="#f6c65b"/></g>
<g transform="translate(-388,0) rotate(180)"><path d="M 0 -8 L 5.5 0 L 0 8 L -5.5 0 Z" fill="#3ecfba"/></g>
<g transform="translate(-336.02,-194) rotate(210)"><path d="M 0 -8 L 5.5 0 L 0 8 L -5.5 0 Z" fill="#f6c65b"/></g>
<g transform="translate(-194,-336.02) rotate(240)"><path d="M 0 -8 L 5.5 0 L 0 8 L -5.5 0 Z" fill="#3ecfba"/></g>
<path d="M 0 -340 A 340 340 0 0 1 0 340 A 170 170 0 0 0 0 0 A 170 170 0 0 1 0 -340 Z" fill="url(#gold)"/>
<path d="M 0 340 A 340 340 0 0 1 0 -340 A 170 170 0 0 0 0 0 A 170 170 0 0 1 0 340 Z" fill="url(#teal)"/>
<g transform="translate(0,-170.0) scale(0.96)">
<path d="M -21.48 -89.46 Q -10.3 -124.58 0 -152 Q 10.3 -124.58 21.48 -89.46 Z M 26.13 -88.21 Q 53.37 -113.03 76 -131.64 Q 71.2 -102.74 63.33 -66.73 Z M 66.73 -63.33 Q 102.74 -71.2 131.64 -76 Q 113.03 -53.37 88.21 -26.13 Z M 89.46 -21.48 Q 124.58 -10.3 152 0 Q 124.58 10.3 89.46 21.48 Z M 88.21 26.13 Q 113.03 53.37 131.64 76 Q 102.74 71.2 66.73 63.33 Z M 63.33 66.73 Q 71.2 102.74 76 131.64 Q 53.37 113.03 26.13 88.21 Z M 21.48 89.46 Q 10.3 124.58 0 152 Q -10.3 124.58 -21.48 89.46 Z M -26.13 88.21 Q -53.37 113.03 -76 131.64 Q -71.2 102.74 -63.33 66.73 Z M -66.73 63.33 Q -102.74 71.2 -131.64 76 Q -113.03 53.37 -88.21 26.13 Z M -89.46 21.48 Q -124.58 10.3 -152 0 Q -124.58 -10.3 -89.46 -21.48 Z M -88.21 -26.13 Q -113.03 -53.37 -131.64 -76 Q -102.74 -71.2 -66.73 -63.33 Z M -63.33 -66.73 Q -71.2 -102.74 -76 -131.64 Q -53.37 -113.03 -26.13 -88.21 Z" fill="#0c101c"/>
<circle r="98" fill="#0c101c"/>
<path d="M -56 -44 L -16 -31 M 56 -44 L 16 -31" fill="none" stroke="#e8b84b" stroke-width="11" stroke-linecap="round" stroke-linejoin="round"/>
<path d="M -14 -8 Q -33 -26 -52 -20 Q -33 -2 -14 -8 Z M 14 -8 Q 33 -26 52 -20 Q 33 -2 14 -8 Z" fill="#3ecfba"/>
<path d="M -17 18 L 17 18 L 0 44 Z" fill="#e8b84b"/>
<path d="M -14 -28 L -13 16 M 14 -28 L 13 16" fill="none" stroke="#e8b84b" stroke-width="6" stroke-linecap="round" stroke-linejoin="round"/>
<path d="M 0 44 L 0 56 M 0 56 C -8 66 -24 66 -32 56 M 0 56 C 8 66 24 66 32 56" fill="none" stroke="#e8b84b" stroke-width="8" stroke-linecap="round" stroke-linejoin="round"/>
<path d="M 0 70 L 9 81 L 0 94 L -9 81 Z" fill="#e8b84b"/>
</g>
<g transform="translate(0,170.0)">
<path d="M 43.84 -89.88 L 47.82 -87.83 L 51.7 -85.6 L 55.48 -83.2 L 59.15 -80.63 L 62.71 -77.9 L 66.13 -75.01 L 69.42 -71.97 L 72.58 -68.79 L 75.59 -65.47 L 78.44 -62.02 L 81.14 -58.45 L 83.68 -54.76 L 86.04 -50.95 L 88.24 -47.05 L 90.26 -43.05 L 92.1 -38.97 L 93.75 -34.8 L 95.21 -30.57 L 96.49 -26.28 L 97.57 -21.93 L 98.45 -17.54 L 99.14 -13.11 L 99.62 -8.66 L 99.91 -4.19 L 100 0.29 L 99.89 4.77 L 99.57 9.24 L 99.06 13.69 L 98.35 18.11 L 97.44 22.5 L 96.33 26.84 L 95.03 31.12 L 93.54 35.35 L 91.87 39.5 L 90.01 43.58 L 87.96 47.56 L 85.75 51.45 L 83.36 55.24 L 80.8 58.92 L 78.08 62.48 L 75.2 65.91 L 72.18 69.21 L 69 72.38 L 65.69 75.39 L 62.25 78.26 L 58.68 80.97 L 55 83.52 L 51.2 85.9 L 47.31 88.1 L 43.31 90.13 L 39.23 91.98 L 35.08 93.65 L 30.85 95.12 L 26.56 96.41 L 22.21 97.5 L 17.82 98.4 L 13.4 99.1 L 8.95 99.6 L 4.48 99.9 L 0 100 L -4.48 99.9 L -8.95 99.6 L -13.4 99.1 L -17.82 98.4 L -22.21 97.5 L -26.56 96.41 L -30.85 95.12 L -35.08 93.65 L -39.23 91.98 L -43.31 90.13 L -47.31 88.1 L -51.2 85.9 L -55 83.52 L -58.68 80.97 L -62.25 78.26 L -65.69 75.39 L -69 72.38 L -72.18 69.21 L -75.2 65.91 L -78.08 62.48 L -80.8 58.92 L -83.36 55.24 L -85.75 51.45 L -87.96 47.56 L -90.01 43.58 L -91.87 39.5 L -93.54 35.35 L -95.03 31.12 L -96.33 26.84 L -97.44 22.5 L -98.35 18.11 L -99.06 13.69 L -99.57 9.24 L -99.89 4.77 L -100 0.29 L -99.91 -4.19 L -99.62 -8.66 L -99.14 -13.11 L -98.45 -17.54 L -97.57 -21.93 L -96.49 -26.28 L -95.21 -30.57 L -93.75 -34.8 L -92.1 -38.97 L -90.26 -43.05 L -88.24 -47.05 L -86.04 -50.95 L -83.68 -54.76 L -81.14 -58.45 L -78.44 -62.02 L -75.59 -65.47 L -72.58 -68.79 L -69.42 -71.97 L -66.13 -75.01 L -62.71 -77.9 L -59.15 -80.63 L -55.48 -83.2 L -51.7 -85.6 L -47.82 -87.83 L -43.84 -89.88" fill="none" stroke="#0c101c" stroke-width="27" stroke-linecap="round" stroke-linejoin="round"/>
<path d="M -49.76 -102.01 Q -22.81 -107.32 0 -96 Q -18.77 -88.31 -37.92 -77.75 Z" fill="#0c101c"/>
<g transform="translate(43.84,-89.88) rotate(-154)">
<path d="M -8 -18 C 28 -20 48 -9 55 0 C 48 9 28 20 -8 18 Z" fill="#0c101c"/>
<circle cx="26" cy="-6" r="7" fill="#f6c65b"/>
<path d="M 55 0 L 68 0 M 68 0 L 77 -6 M 68 0 L 77 6" fill="none" stroke="#2bb5a3" stroke-width="4.5" stroke-linecap="round" stroke-linejoin="round"/>
</g>
<g transform="rotate(24)"><path d="M 15 -48 A 50 50 0 1 0 15 48 A 63 63 0 0 1 15 -48 Z" fill="#0c101c"/></g>
<path d="M 30 -8 L 35 4 L 47 9 L 35 14 L 30 26 L 25 14 L 13 9 L 25 4 Z" fill="#0c101c"/>
</g>
</g>
<g transform="translate(197,862) scale(1.0)">
<g transform="translate(0,0)"><path d="M 2 0 L 68 0 L 2 100 L 68 100" fill="none" stroke="#e8b84b" stroke-width="13" stroke-linecap="round" stroke-linejoin="round"/></g>
<g transform="translate(112,0)"><path d="M 2 0 L 2 60 C 2 88 14 100 35 100 C 56 100 68 88 68 60 L 68 0" fill="none" stroke="#e8b84b" stroke-width="13" stroke-linecap="round" stroke-linejoin="round"/></g>
<g transform="translate(224,0)"><path d="M 2 100 L 2 0 L 42 0 C 62 0 68 11 68 26 C 68 41 62 52 42 52 L 2 52 M 44 52 L 68 100" fill="none" stroke="#e8b84b" stroke-width="13" stroke-linecap="round" stroke-linejoin="round"/></g>
<g transform="translate(336,0)"><path d="M 2 0 L 35 100 L 68 0" fill="none" stroke="#e8b84b" stroke-width="13" stroke-linecap="round" stroke-linejoin="round"/></g>
<g transform="translate(448,0)"><path d="M 2 100 L 35 0 L 68 100 M 22 62 L 48 62" fill="none" stroke="#e8b84b" stroke-width="13" stroke-linecap="round" stroke-linejoin="round"/></g>
<g transform="translate(560,0)"><path d="M 2 100 L 2 0 L 68 100 L 68 0" fill="none" stroke="#e8b84b" stroke-width="13" stroke-linecap="round" stroke-linejoin="round"/></g>
</g>
<g transform="translate(481.06,1000) scale(0.34)">
<g transform="translate(0,0)"><path d="M 35 0 C 14 0 4 18 4 50 C 4 82 14 100 35 100 C 56 100 66 82 66 50 C 66 18 56 0 35 0 Z" fill="none" stroke="#2bb5a3" stroke-width="15" stroke-linecap="round" stroke-linejoin="round"/></g>
<g transform="translate(112,0)"><path d="M 62 16 C 52 2 22 -2 12 14 C 2 30 22 40 35 45 C 50 51 68 60 60 80 C 52 100 18 102 6 88" fill="none" stroke="#2bb5a3" stroke-width="15" stroke-linecap="round" stroke-linejoin="round"/></g>
</g>
<path d="M 305.06 1017 L 435.06 1017" stroke="#e8b84b" stroke-width="3" opacity="0.6"/>
<path d="M 588.94 1017 L 718.94 1017" stroke="#e8b84b" stroke-width="3" opacity="0.6"/>
</svg>